<svg xmlns="http://www.w3.org/2000/svg" viewBox="0 0 168 46" width="168" height="46" role="img" aria-label="TTT Training – Iridium">
  <title>TTT Training – Iridium</title>
  <defs>
    <linearGradient id="r-training-iridium-frame" x1="0" y1="0" x2="0" y2="1">
      <stop offset="0" stop-color="#ccd5f4"></stop><stop offset="0.42" stop-color="#7b85b4"></stop><stop offset="1" stop-color="#262c46"></stop>
    </linearGradient>
    <linearGradient id="r-training-iridium-device" x1="0" y1="0" x2="0" y2="1">
      <stop offset="0" stop-color="#ebeefb"></stop><stop offset="0.78" stop-color="#cacee1"></stop>
    </linearGradient>
    <linearGradient id="r-training-iridium-sheen" x1="0" y1="0" x2="0" y2="1">
      <stop offset="0" stop-color="#ffffff" stop-opacity="0.16"></stop>
      <stop offset="0.46" stop-color="#ffffff" stop-opacity="0"></stop>
      <stop offset="1" stop-color="#000000" stop-opacity="0.32"></stop>
    </linearGradient>
  </defs>
  <rect width="168" height="46" fill="url(#r-training-iridium-frame)"></rect>
  <g>
    <rect x="3" y="3" width="9.72" height="40" fill="#ccd5f4"></rect>
    <rect x="12.72" y="3" width="35.64" height="40" fill="#262c46"></rect>
    <rect x="48.36" y="3" width="16.2" height="40" fill="#7b85b4"></rect>
    <rect x="64.56" y="3" width="38.88" height="40" fill="#262c46"></rect>
    <rect x="103.44" y="3" width="16.2" height="40" fill="#7b85b4"></rect>
    <rect x="119.64" y="3" width="35.64" height="40" fill="#262c46"></rect>
    <rect x="155.28" y="3" width="9.72" height="40" fill="#ccd5f4"></rect>
  </g>
  <rect x="3" y="3" width="162" height="40" fill="url(#r-training-iridium-sheen)"></rect>
  <rect x="3.5" y="3.5" width="161" height="39" fill="none" stroke="#000000" stroke-opacity="0.45"></rect>
  <path d="M84 6.5 L101 13.78 L101 20.5 L84 13.22 L67 20.5 L67 13.78 Z M84 25.5 L101 32.78 L101 39.5 L84 32.22 L67 39.5 L67 32.78 Z" fill="url(#r-training-iridium-device)" stroke="#05070a" stroke-width="2.4" stroke-linejoin="round" paint-order="stroke fill"></path>
</svg>